<svg width="53" height="53" viewBox="0 0 53 53" fill="none" xmlns="http://www.w3.org/2000/svg">
<rect width="53" height="53" rx="19" fill="black"/>
<path d="M20.6761 40.0055C19.1277 39.459 17.7024 38.6124 16.4819 37.5141C16.2535 37.3309 15.9636 37.2423 15.6719 37.2665C15.3802 37.2907 15.1089 37.426 14.914 37.6444C14.719 37.8628 14.6153 38.1476 14.6242 38.4402C14.6332 38.7328 14.754 39.0108 14.9619 39.2169C16.4063 40.5121 18.0917 41.5101 19.9218 42.1541C20.0428 42.198 20.1703 42.2212 20.299 42.2226C20.5667 42.2197 20.8248 42.1229 21.0284 41.949C21.232 41.7752 21.3682 41.5354 21.4131 41.2715C21.4579 41.0076 21.4088 40.7363 21.2741 40.5049C21.1394 40.2735 20.9278 40.0968 20.6761 40.0055ZM24.0475 41.0455C23.9416 41.1523 23.8578 41.2789 23.8009 41.4182C23.744 41.5574 23.7152 41.7065 23.7161 41.8569C23.7179 42.0063 23.749 42.1538 23.8075 42.2912C23.8656 42.4296 23.9467 42.5571 24.0475 42.6683C24.1586 42.7693 24.2862 42.8505 24.4247 42.9083C24.5615 42.9688 24.7094 43 24.8589 43C25.0085 43 25.1564 42.9688 25.2932 42.9083C25.435 42.857 25.5638 42.7751 25.6705 42.6685C25.7771 42.5618 25.859 42.433 25.9104 42.2912C25.9689 42.1538 26 42.0063 26.0018 41.8569C26.0031 41.6299 25.9368 41.4077 25.8113 41.2185C25.6858 41.0293 25.5068 40.8818 25.2972 40.7948C25.0875 40.7077 24.8567 40.6851 24.6342 40.7297C24.4116 40.7744 24.2074 40.8843 24.0475 41.0455Z" fill="white"/>
<path d="M24.8589 11V13.2857C22.2508 13.2854 19.6886 13.9716 17.4298 15.2754C15.1709 16.5793 13.2951 18.4548 11.9909 20.7134C10.6867 22.972 10.0001 25.5341 10 28.1423C9.99992 30.7504 10.6864 33.3126 11.9905 35.5713C12.0619 35.7078 12.1602 35.8285 12.2796 35.9261C12.3989 36.0237 12.5367 36.0962 12.6847 36.1391C12.8327 36.1821 12.9879 36.1946 13.1409 36.176C13.2939 36.1574 13.4416 36.1081 13.5751 36.031C13.7085 35.9538 13.825 35.8505 13.9174 35.7272C14.0099 35.6039 14.0765 35.4631 14.1132 35.3134C14.1498 35.1637 14.1558 35.0081 14.1308 34.856C14.1058 34.7039 14.0503 34.5585 13.9676 34.4284C12.864 32.517 12.2832 30.3488 12.2834 28.1417C12.2835 25.9346 12.8648 23.7664 13.9687 21.8552C15.0725 19.944 16.6601 18.3571 18.5718 17.254C20.4835 16.151 22.6519 15.5706 24.8589 15.5714V17.8571C27.5869 17.8571 30.2031 18.9408 32.132 20.8697C34.0609 22.7986 35.1446 25.4148 35.1446 28.1427H37.4303C37.4327 30.7437 36.6283 33.2815 35.128 35.4061C33.6276 37.5308 31.5052 39.1377 29.0532 40.0055C28.9029 40.0484 28.763 40.1216 28.6421 40.2207C28.5212 40.3197 28.4219 40.4426 28.3504 40.5815C28.2788 40.7205 28.2366 40.8727 28.2262 41.0286C28.2158 41.1846 28.2375 41.341 28.29 41.4882C28.3424 41.6355 28.4246 41.7704 28.5312 41.8846C28.6379 41.9988 28.7669 42.09 28.9102 42.1524C29.0535 42.2148 29.2081 42.2471 29.3644 42.2474C29.5207 42.2477 29.6754 42.2159 29.8189 42.1541C32.7148 41.1285 35.2215 39.2303 36.9939 36.7211C38.7664 34.2118 39.7174 31.2148 39.716 28.1427H42.0017C42.0017 23.5962 40.1956 19.2359 36.9807 16.021C33.7658 12.8061 29.4055 11 24.8589 11Z" fill="white"/>
</svg>
