<svg width="228" height="51" viewBox="0 0 228 51" fill="none" xmlns="http://www.w3.org/2000/svg">
<path d="M17.015 46.2275C14.5473 45.3566 12.2757 44.0072 10.3304 42.2568C9.96656 41.9648 9.50453 41.8236 9.0396 41.8622C8.57466 41.9009 8.14228 42.1164 7.83161 42.4645C7.52094 42.8125 7.35566 43.2665 7.36986 43.7328C7.38406 44.1991 7.57666 44.6422 7.90794 44.9707C10.2101 47.0349 12.8962 48.6255 15.8129 49.6518C16.0056 49.7218 16.2089 49.7587 16.4139 49.761C16.8406 49.7563 17.252 49.602 17.5765 49.325C17.901 49.048 18.118 48.6658 18.1895 48.2452C18.2611 47.8246 18.1827 47.3922 17.968 47.0234C17.7534 46.6547 17.4161 46.373 17.015 46.2275ZM22.3882 47.885C22.2194 48.0552 22.0858 48.257 21.9952 48.4789C21.9045 48.7009 21.8586 48.9385 21.86 49.1782C21.8628 49.4162 21.9123 49.6513 22.0057 49.8703C22.0982 50.0909 22.2276 50.2941 22.3882 50.4714C22.5652 50.6323 22.7685 50.7616 22.9892 50.8539C23.2073 50.9503 23.443 51 23.6814 51C23.9198 51 24.1555 50.9503 24.3735 50.8539C24.5995 50.7721 24.8048 50.6416 24.9748 50.4716C25.1448 50.3016 25.2753 50.0964 25.3571 49.8703C25.4504 49.6513 25.4999 49.4162 25.5028 49.1782C25.5049 48.8164 25.3992 48.4622 25.1992 48.1607C24.9992 47.8592 24.714 47.6242 24.3799 47.4854C24.0457 47.3467 23.6779 47.3106 23.3231 47.3818C22.9684 47.4529 22.6429 47.6281 22.3882 47.885Z" fill="black"/>
<path d="M23.6814 0V3.64283C19.5247 3.64229 15.4412 4.736 11.8412 6.81399C8.24117 8.89198 5.25163 11.881 3.17306 15.4807C1.09449 19.0804 0.000133461 23.1638 1.22063e-08 27.3205C-0.000133437 31.4771 1.09396 35.5606 3.1723 39.1604C3.28617 39.3781 3.44289 39.5705 3.63303 39.726C3.82318 39.8815 4.04282 39.997 4.27874 40.0654C4.51467 40.1339 4.762 40.1539 5.00586 40.1243C5.24972 40.0946 5.48507 40.016 5.69774 39.8931C5.91042 39.7701 6.09603 39.6054 6.24342 39.4089C6.3908 39.2124 6.4969 38.9881 6.55534 38.7495C6.61379 38.5109 6.62336 38.2629 6.58349 38.0205C6.54362 37.7781 6.45513 37.5463 6.32335 37.339C4.56457 34.2927 3.6388 30.8371 3.63909 27.3195C3.63939 23.802 4.56575 20.3465 6.32504 17.3005C8.08433 14.2545 10.6145 11.7254 13.6613 9.96737C16.708 8.20937 20.1639 7.28447 23.6814 7.28566V10.9285C28.029 10.9285 32.1986 12.6556 35.2728 15.7298C38.3471 18.804 40.0742 22.9736 40.0742 27.3212H43.717C43.7209 31.4666 42.4388 35.511 40.0477 38.8972C37.6565 42.2834 34.2738 44.8445 30.366 46.2275C30.1265 46.2958 29.9034 46.4125 29.7108 46.5704C29.5181 46.7283 29.3599 46.924 29.2459 47.1455C29.1319 47.367 29.0645 47.6095 29.0479 47.8581C29.0314 48.1066 29.066 48.3559 29.1496 48.5906C29.2332 48.8252 29.3641 49.0402 29.5341 49.2223C29.7042 49.4044 29.9097 49.5496 30.1381 49.6491C30.3665 49.7485 30.6128 49.8001 30.862 49.8005C31.1111 49.801 31.3576 49.7504 31.5864 49.6517C36.2016 48.0172 40.1967 44.9921 43.0215 40.993C45.8464 36.9939 47.362 32.2174 47.3598 27.3212H51.0026C51.0026 20.0752 48.1242 13.1259 43.0004 8.0022C37.8767 2.87848 30.9275 0 23.6814 0Z" fill="black"/>
<path d="M72.316 37.315C70.93 37.315 69.7015 36.9895 68.6305 36.3385C67.5805 35.6665 66.7615 34.711 66.1735 33.472C65.5855 32.233 65.2915 30.7525 65.2915 29.0305C65.2915 27.3085 65.5855 25.8385 66.1735 24.6205C66.7615 23.3815 67.5805 22.4365 68.6305 21.7855C69.7015 21.1135 70.93 20.7775 72.316 20.7775C73.639 20.7775 74.8045 21.103 75.8125 21.754C76.8415 22.384 77.524 23.245 77.86 24.337H77.4505V13.816H81.388V37H77.5135V33.6295H77.8915C77.5555 34.7635 76.873 35.6665 75.844 36.3385C74.836 36.9895 73.66 37.315 72.316 37.315ZM73.4185 34.291C74.6575 34.291 75.655 33.8605 76.411 32.9995C77.167 32.1175 77.545 30.7945 77.545 29.0305C77.545 27.2665 77.167 25.954 76.411 25.093C75.655 24.232 74.6575 23.8015 73.4185 23.8015C72.1795 23.8015 71.1715 24.232 70.3945 25.093C69.6385 25.954 69.2605 27.2665 69.2605 29.0305C69.2605 30.7945 69.6385 32.1175 70.3945 32.9995C71.1715 33.8605 72.1795 34.291 73.4185 34.291ZM85.6757 37V21.0925H89.6132V37H85.6757ZM85.4552 18.1V14.257H89.8337V18.1H85.4552ZM101.26 44.056C99.7901 44.056 98.4566 43.8985 97.2596 43.5835C96.0836 43.2685 95.0336 42.7855 94.1096 42.1345L94.9601 39.2995C95.5691 39.6985 96.1991 40.024 96.8501 40.276C97.5011 40.528 98.1731 40.717 98.8661 40.843C99.5591 40.969 100.263 41.032 100.977 41.032C102.447 41.032 103.539 40.6645 104.253 39.9295C104.988 39.2155 105.355 38.1865 105.355 36.8425V33.031H105.67C105.334 34.123 104.652 34.9945 103.623 35.6455C102.615 36.2965 101.449 36.622 100.126 36.622C98.6981 36.622 97.4486 36.307 96.3776 35.677C95.3276 35.026 94.5086 34.102 93.9206 32.905C93.3326 31.708 93.0386 30.301 93.0386 28.684C93.0386 27.067 93.3326 25.6705 93.9206 24.4945C94.5086 23.2975 95.3276 22.384 96.3776 21.754C97.4486 21.103 98.6981 20.7775 100.126 20.7775C101.47 20.7775 102.636 21.103 103.623 21.754C104.631 22.384 105.303 23.245 105.639 24.337L105.355 24.148L105.67 21.0925H109.482C109.398 21.7435 109.335 22.405 109.293 23.077C109.251 23.749 109.23 24.4105 109.23 25.0615V36.37C109.23 38.869 108.547 40.7695 107.182 42.0715C105.838 43.3945 103.864 44.056 101.26 44.056ZM101.197 33.598C102.457 33.598 103.455 33.178 104.19 32.338C104.946 31.477 105.324 30.259 105.324 28.684C105.324 27.109 104.946 25.9015 104.19 25.0615C103.455 24.2215 102.457 23.8015 101.197 23.8015C99.9161 23.8015 98.8976 24.2215 98.1416 25.0615C97.3856 25.9015 97.0076 27.109 97.0076 28.684C97.0076 30.259 97.3856 31.477 98.1416 32.338C98.8976 33.178 99.9161 33.598 101.197 33.598ZM113.484 37V21.0925H117.422V37H113.484ZM113.264 18.1V14.257H117.642V18.1H113.264ZM122.013 37V14.7925H126.076V24.0535H137.448V14.7925H141.511V37H137.448V27.424H126.076V37H122.013ZM153.778 37.315C151.111 37.315 149.021 36.58 147.509 35.11C145.997 33.64 145.241 31.624 145.241 29.062C145.241 27.403 145.567 25.954 146.218 24.715C146.869 23.476 147.772 22.51 148.927 21.817C150.103 21.124 151.468 20.7775 153.022 20.7775C154.555 20.7775 155.836 21.103 156.865 21.754C157.894 22.405 158.671 23.3185 159.196 24.4945C159.742 25.6705 160.015 27.046 160.015 28.621V29.6605H148.423V27.5815H157.211L156.676 28.0225C156.676 26.5525 156.361 25.429 155.731 24.652C155.122 23.875 154.229 23.4865 153.053 23.4865C151.751 23.4865 150.743 23.9485 150.029 24.8725C149.336 25.7965 148.99 27.088 148.99 28.747V29.1565C148.99 30.8785 149.41 32.17 150.25 33.031C151.111 33.871 152.318 34.291 153.872 34.291C154.775 34.291 155.615 34.1755 156.392 33.9445C157.19 33.6925 157.946 33.2935 158.66 32.7475L159.826 35.3935C159.07 36.0025 158.167 36.475 157.117 36.811C156.067 37.147 154.954 37.315 153.778 37.315ZM169.492 37.315C168.106 37.315 166.888 36.9895 165.838 36.3385C164.788 35.6665 163.969 34.711 163.381 33.472C162.793 32.233 162.499 30.7525 162.499 29.0305C162.499 27.3085 162.793 25.8385 163.381 24.6205C163.969 23.3815 164.788 22.4365 165.838 21.7855C166.888 21.1135 168.106 20.7775 169.492 20.7775C170.836 20.7775 172.012 21.1135 173.02 21.7855C174.049 22.4365 174.731 23.3185 175.067 24.4315H174.721L175.067 21.0925H178.847C178.784 21.7435 178.721 22.405 178.658 23.077C178.616 23.749 178.595 24.4105 178.595 25.0615V37H174.689L174.658 33.724H175.036C174.7 34.816 174.017 35.6875 172.988 36.3385C171.959 36.9895 170.794 37.315 169.492 37.315ZM170.594 34.291C171.833 34.291 172.831 33.8605 173.587 32.9995C174.343 32.1175 174.721 30.7945 174.721 29.0305C174.721 27.2665 174.343 25.954 173.587 25.093C172.831 24.232 171.833 23.8015 170.594 23.8015C169.355 23.8015 168.358 24.232 167.602 25.093C166.846 25.954 166.468 27.2665 166.468 29.0305C166.468 30.7945 166.835 32.1175 167.57 32.9995C168.326 33.8605 169.334 34.291 170.594 34.291ZM182.883 37V13.816H186.82V37H182.883ZM197.9 37.315C196.01 37.315 194.582 36.8215 193.616 35.8345C192.65 34.8475 192.167 33.367 192.167 31.393V24.0535H189.112V21.0925H192.167V17.029L196.105 16.021V21.0925H200.357V24.0535H196.105V31.141C196.105 32.233 196.315 32.9995 196.735 33.4405C197.155 33.8815 197.732 34.102 198.467 34.102C198.866 34.102 199.202 34.0705 199.475 34.0075C199.769 33.9445 200.053 33.8605 200.326 33.7555V36.874C199.969 37.021 199.57 37.126 199.129 37.189C198.709 37.273 198.299 37.315 197.9 37.315ZM203.032 37V13.816H206.969V24.274H206.528C207.011 23.14 207.757 22.279 208.765 21.691C209.773 21.082 210.928 20.7775 212.23 20.7775C214.12 20.7775 215.527 21.313 216.451 22.384C217.375 23.434 217.837 25.0405 217.837 27.2035V37H213.899V27.3925C213.899 26.1535 213.658 25.261 213.175 24.715C212.713 24.148 211.967 23.8645 210.938 23.8645C209.741 23.8645 208.775 24.2425 208.04 24.9985C207.326 25.7335 206.969 26.7205 206.969 27.9595V37H203.032ZM221.571 37V32.6215H225.981V37H221.571Z" fill="black"/>
</svg>
